<svg xmlns="http://www.w3.org/2000/svg" fill="none" viewBox="0 0 128 128">
    <g transform="matrix(.24945 -.24945 .24945 .24945 67.435 -166.24)">
    <path d="m26.695 14.988c-0.91406-1.0859-1.9961-2.0234-3.1953-2.7891-2.1719-1.3867-4.7383-2.1992-7.5-2.1992-7.7188 0-14 6.2812-14 14s6.2812 14 14 14c2.7617 0 5.3281-0.8125 7.5-2.1992-1.1992-0.76562-2.2812-1.7031-3.1953-2.7891-1.3086 0.62891-2.7617 0.98828-4.3047 0.98828-5.5156 0-10-4.4844-10-10s4.4844-10 10-10c1.543 0 2.9961 0.35938 4.3047 0.98828 1.2227 0.58594 2.3086 1.4102 3.1953 2.418 1.5508 1.7656 2.5 4.0664 2.5 6.5938s-0.94922 4.8281-2.5 6.5938c0.88672 1.0078 1.9727 1.832 3.1953 2.418 2.0586-2.4375 3.3047-5.5781 3.3047-9.0117s-1.2461-6.5742-3.3047-9.0117z" fill="#ffc107"/><path d="m31 10c-2.7617 0-5.3281 0.8125-7.5 2.1992 1.1992 0.76562 2.2812 1.7031 3.1953 2.7891 1.3086-0.62891 2.7617-0.98828 4.3047-0.98828 5.5156 0 10 4.4844 10 10s-4.4844 10-10 10c-1.543 0-2.9961-0.35938-4.3047-0.98828-1.2227-0.58594-2.3086-1.4102-3.1953-2.418-1.5508-1.7656-2.5-4.0664-2.5-6.5938s0.94922-4.8281 2.5-6.5938c-0.88672-1.0078-1.9727-1.832-3.1953-2.418-2.0586 2.4375-3.3047 5.5781-3.3047 9.0117s1.2461 6.5742 3.3047 9.0117c0.91406 1.0859 1.9961 2.0234 3.1953 2.7891 2.1719 1.3867 4.7383 2.1992 7.5 2.1992 7.7188 0 14-6.2812 14-14s-6.2812-14-14-14z" fill="#ffc107"/><path d="m30 24c0 3.4336-1.2461 6.5742-3.3047 9.0117-1.2227-0.58594-2.3086-1.4102-3.1953-2.418 0.0625-0.07031 0.11328-0.14844 0.17578-0.21875 2.457-2.1953 4.0117-5.3828 4.0117-8.9375 0-3.9727-1.9375-7.4844-4.9141-9.6719 0.24609 0.14062 0.48828 0.28125 0.72656 0.43359 1.2031 0.76562 2.2812 1.7031 3.1992 2.7891 2.0547 2.4375 3.3008 5.5781 3.3008 9.0117zm-9.6953 9.0117c0.91406 1.0859 1.9961 2.0234 3.1953 2.7891 0.23828 0.15234 0.48047 0.29297 0.72656 0.43359-2.9727-2.1875-4.9141-5.6992-4.9141-9.6719 0-3.5547 1.5547-6.7383 4.0117-8.9375 0.0625-0.070312 0.11328-0.14844 0.17578-0.21875-0.88672-1.0078-1.9727-1.832-3.1953-2.418-2.0586 2.4375-3.3047 5.5781-3.3047 9.0117s1.2461 6.5742 3.3047 9.0117z" fill="#f29e25"/><path d="m19.117 16.637c-0.0039 0.0039-0.0078 0.01172-0.01172 0.01563 0.10938 0.04687 0.22266 0.08594 0.33203 0.14062 0.98047 0.46875 1.8438 1.1211 2.5586 1.9375 0.04687 0.05078 0.08594 0.10547 0.125 0.16016 0.375-0.44922 0.76953-0.875 1.2031-1.2656 0.0625-0.07031 0.11328-0.14844 0.17578-0.21875-0.88672-1.0078-1.9727-1.832-3.1953-2.418-0.22656 0.26172-0.43359 0.53906-0.63672 0.81641-0.19141 0.26953-0.375 0.55078-0.55078 0.83203z" fill="#dd851d"/><path d="m27.895 31.348c-0.10938-0.04687-0.22266-0.08594-0.33203-0.13672-0.98047-0.47266-1.8438-1.125-2.5586-1.9414-0.04687-0.05078-0.08594-0.10547-0.125-0.16016-0.375 0.44922-0.76953 0.87891-1.2031 1.2656-0.0625 0.07031-0.11328 0.14844-0.17578 0.21875 0.88672 1.0078 1.9727 1.832 3.1953 2.4219 0.22656-0.26562 0.43359-0.54297 0.64062-0.82422 0.19141-0.27734 0.37891-0.55469 0.55859-0.84375z" fill="#dd851d"/>
    </g>
    <style>
        path { fill: #000; }
        @media (prefers-color-scheme: dark) {
            path { fill: #FFF; }
        }
    </style>
</svg>
