<?xml version="1.0" encoding="UTF-8"?>
<svg xmlns="http://www.w3.org/2000/svg" xmlns:xlink="http://www.w3.org/1999/xlink" width="26pt" height="26pt" viewBox="0 0 26 26" version="1.1">
<g id="surface1">
<path style=" stroke:none;fill-rule:nonzero;fill:#808080;fill-opacity:1;" d="M 12.804688 0 C 9.539063 0 6.894531 2.648438 6.894531 5.910156 C 6.894531 9.171875 12.035156 17.277344 12.035156 21.667969 L 13.574219 21.667969 C 13.574219 17.292969 18.710938 8.90625 18.710938 5.910156 C 18.710938 2.648438 16.066406 0 12.804688 0 Z M 12.804688 2.953125 C 14.433594 2.953125 15.757813 4.277344 15.757813 5.910156 C 15.757813 7.539063 14.433594 8.863281 12.804688 8.863281 C 11.171875 8.863281 9.847656 7.539063 9.847656 5.910156 C 9.847656 4.277344 11.171875 2.953125 12.804688 2.953125 Z M 6.738281 17.019531 C 6.722656 17.027344 6.699219 17.039063 6.679688 17.050781 C 4.863281 17.371094 3.320313 17.808594 2.15625 18.40625 C 1.570313 18.703125 1.066406 19.058594 0.675781 19.480469 C 0.289063 19.90625 0 20.457031 0 21.082031 C 0 22.015625 0.621094 22.742188 1.355469 23.265625 C 2.089844 23.789063 3.019531 24.1875 4.15625 24.527344 C 6.425781 25.210938 9.460938 25.605469 12.804688 25.605469 C 16.144531 25.605469 19.179688 25.210938 21.453125 24.527344 C 22.585938 24.1875 23.515625 23.789063 24.25 23.265625 C 24.988281 22.742188 25.605469 22.015625 25.605469 21.082031 C 25.605469 20.457031 25.320313 19.878906 24.929688 19.449219 C 24.535156 19.023438 24.035156 18.703125 23.453125 18.40625 C 22.277344 17.808594 20.722656 17.371094 18.898438 17.050781 C 18.542969 16.972656 18.175781 17.097656 17.941406 17.371094 C 17.703125 17.648438 17.640625 18.027344 17.765625 18.363281 C 17.898438 18.699219 18.199219 18.941406 18.558594 18.988281 C 20.253906 19.285156 21.667969 19.703125 22.558594 20.160156 C 23.003906 20.386719 23.320313 20.628906 23.484375 20.804688 C 23.644531 20.980469 23.636719 21.050781 23.636719 21.082031 C 23.636719 21.128906 23.574219 21.339844 23.113281 21.667969 C 22.652344 21.992188 21.871094 22.351563 20.867188 22.652344 C 18.859375 23.25 15.984375 23.636719 12.804688 23.636719 C 9.621094 23.636719 6.746094 23.25 4.738281 22.652344 C 3.734375 22.351563 2.953125 21.992188 2.492188 21.667969 C 2.03125 21.339844 1.96875 21.128906 1.96875 21.082031 C 1.96875 21.050781 1.960938 20.980469 2.125 20.804688 C 2.285156 20.628906 2.605469 20.386719 3.046875 20.160156 C 3.9375 19.703125 5.328125 19.285156 7.015625 18.988281 C 7.558594 18.914063 7.941406 18.40625 7.863281 17.867188 C 7.785156 17.324219 7.28125 16.941406 6.738281 17.019531 Z "/>
</g>
 <style>
        path { fill: #000; stroke: yellow;}
        @media (prefers-color-scheme: dark) {
            path { fill: #FFF; stroke: yellow;}
        }
    </style>
</svg>
