<?xml version="1.0" encoding="UTF-8"?>
<svg xmlns="http://www.w3.org/2000/svg" xmlns:xlink="http://www.w3.org/1999/xlink" width="50pt" height="50pt" viewBox="0 0 50 50" version="1.1">
<g id="surface1">
<path d="M 21.484375 0.992188 L 17.269531 4.152344 L 16.429688 4.804688 L 17.082031 5.582031 L 18.292969 7.007813 C 9.964844 9.734375 3.96875 17.554688 3.96875 26.785156 C 3.96875 38.28125 13.308594 47.617188 24.800781 47.617188 C 36.296875 47.617188 45.636719 38.28125 45.636719 26.785156 C 45.636719 17.566406 39.625 9.746094 31.3125 7.007813 L 32.519531 5.582031 L 33.171875 4.804688 L 32.335938 4.152344 L 28.117188 0.992188 Z M 22.167969 2.976563 L 27.4375 2.976563 L 30.070313 4.960938 L 24.800781 4.960938 L 24.800781 6.945313 L 28.800781 6.945313 L 26.320313 9.921875 L 23.28125 9.921875 L 20.800781 6.945313 L 22.816406 6.945313 L 22.816406 4.960938 L 19.53125 4.960938 Z M 19.65625 8.648438 L 21.050781 10.355469 C 13.542969 12.058594 7.9375 18.769531 7.9375 26.785156 C 7.9375 36.089844 15.496094 43.652344 24.800781 43.652344 C 34.105469 43.652344 41.667969 36.089844 41.667969 26.785156 C 41.667969 18.769531 36.058594 12.058594 28.554688 10.355469 L 29.949219 8.679688 C 37.847656 10.921875 43.652344 18.152344 43.652344 26.785156 C 43.652344 37.207031 35.222656 45.636719 24.800781 45.636719 C 14.382813 45.636719 5.953125 37.207031 5.953125 26.785156 C 5.953125 18.152344 11.753906 10.890625 19.65625 8.648438 Z M 24.800781 11.90625 C 33.03125 11.90625 39.683594 18.554688 39.683594 26.785156 C 39.683594 35.015625 33.03125 41.667969 24.800781 41.667969 C 16.570313 41.667969 9.921875 35.015625 9.921875 26.785156 C 9.921875 18.554688 16.570313 11.90625 24.800781 11.90625 Z "/>
</g>
 <style>
        path { fill: #000; stroke: yellow;}
        @media (prefers-color-scheme: dark) {
            path { fill: #FFF; stroke: yellow;}
        }
    </style>
</svg>   
